<svg preserveAspectRatio="none" width="100%" height="100%" overflow="visible" style="display: block;" viewBox="0 0 32 32" fill="none" xmlns="http://www.w3.org/2000/svg">
<g id="forward_10_24px">
<path id="Vector" d="M16 29.3333C14.3333 29.3333 12.7722 29.0167 11.3167 28.3833C9.86111 27.75 8.59444 26.8944 7.51667 25.8167C6.43889 24.7389 5.58333 23.4722 4.95 22.0167C4.31667 20.5611 4 19 4 17.3333C4 15.6667 4.31667 14.1056 4.95 12.65C5.58333 11.1944 6.43889 9.92778 7.51667 8.85C8.59444 7.77222 9.86111 6.91667 11.3167 6.28333C12.7722 5.65 14.3333 5.33333 16 5.33333H16.2L15.0667 4.2C14.8 3.93333 14.6722 3.62222 14.6833 3.26667C14.6944 2.91111 14.8222 2.6 15.0667 2.33333C15.3333 2.06667 15.65 1.92778 16.0167 1.91667C16.3833 1.90555 16.7 2.03333 16.9667 2.3L20.4 5.73333C20.6667 6 20.8 6.31111 20.8 6.66667C20.8 7.02222 20.6667 7.33333 20.4 7.6L16.9667 11.0333C16.7 11.3 16.3833 11.4278 16.0167 11.4167C15.65 11.4056 15.3333 11.2667 15.0667 11C14.8222 10.7333 14.6944 10.4222 14.6833 10.0667C14.6722 9.71111 14.8 9.4 15.0667 9.13333L16.2 8H16C13.4 8 11.1944 8.90555 9.38333 10.7167C7.57222 12.5278 6.66667 14.7333 6.66667 17.3333C6.66667 19.9333 7.57222 22.1389 9.38333 23.95C11.1944 25.7611 13.4 26.6667 16 26.6667C18.6 26.6667 20.8056 25.7611 22.6167 23.95C24.4278 22.1389 25.3333 19.9333 25.3333 17.3333C25.3333 16.9556 25.4611 16.6389 25.7167 16.3833C25.9722 16.1278 26.2889 16 26.6667 16C27.0444 16 27.3611 16.1278 27.6167 16.3833C27.8722 16.6389 28 16.9556 28 17.3333C28 19 27.6833 20.5611 27.05 22.0167C26.4167 23.4722 25.5611 24.7389 24.4833 25.8167C23.4056 26.8944 22.1389 27.75 20.6833 28.3833C19.2278 29.0167 17.6667 29.3333 16 29.3333ZM12 15.3333H11C10.7111 15.3333 10.4722 15.2389 10.2833 15.05C10.0944 14.8611 10 14.6222 10 14.3333C10 14.0444 10.0944 13.8056 10.2833 13.6167C10.4722 13.4278 10.7111 13.3333 11 13.3333H13C13.2889 13.3333 13.5278 13.4278 13.7167 13.6167C13.9056 13.8056 14 14.0444 14 14.3333V20.3333C14 20.6222 13.9056 20.8611 13.7167 21.05C13.5278 21.2389 13.2889 21.3333 13 21.3333C12.7111 21.3333 12.4722 21.2389 12.2833 21.05C12.0944 20.8611 12 20.6222 12 20.3333V15.3333ZM16.6667 21.3333C16.2889 21.3333 15.9722 21.2056 15.7167 20.95C15.4611 20.6944 15.3333 20.3778 15.3333 20V14.6667C15.3333 14.2889 15.4611 13.9722 15.7167 13.7167C15.9722 13.4611 16.2889 13.3333 16.6667 13.3333H19.3333C19.7111 13.3333 20.0278 13.4611 20.2833 13.7167C20.5389 13.9722 20.6667 14.2889 20.6667 14.6667V20C20.6667 20.3778 20.5389 20.6944 20.2833 20.95C20.0278 21.2056 19.7111 21.3333 19.3333 21.3333H16.6667ZM17.3333 19.3333H18.6667V15.3333H17.3333V19.3333Z" fill="var(--fill-0, black)"/>
</g>
</svg>
