<svg preserveAspectRatio="none" width="100%" height="100%" overflow="visible" style="display: block;" viewBox="0 0 40 40" fill="none" xmlns="http://www.w3.org/2000/svg">
<g id="pause_fill1_24px">
<path id="Vector" d="M26.6667 31.6667C25.75 31.6667 24.9653 31.3403 24.3125 30.6875C23.6597 30.0347 23.3333 29.25 23.3333 28.3333V11.6667C23.3333 10.75 23.6597 9.96528 24.3125 9.3125C24.9653 8.65972 25.75 8.33333 26.6667 8.33333C27.5833 8.33333 28.3681 8.65972 29.0208 9.3125C29.6736 9.96528 30 10.75 30 11.6667V28.3333C30 29.25 29.6736 30.0347 29.0208 30.6875C28.3681 31.3403 27.5833 31.6667 26.6667 31.6667ZM13.3333 31.6667C12.4167 31.6667 11.6319 31.3403 10.9792 30.6875C10.3264 30.0347 10 29.25 10 28.3333V11.6667C10 10.75 10.3264 9.96528 10.9792 9.3125C11.6319 8.65972 12.4167 8.33333 13.3333 8.33333C14.25 8.33333 15.0347 8.65972 15.6875 9.3125C16.3403 9.96528 16.6667 10.75 16.6667 11.6667V28.3333C16.6667 29.25 16.3403 30.0347 15.6875 30.6875C15.0347 31.3403 14.25 31.6667 13.3333 31.6667Z" fill="var(--fill-0, black)"/>
</g>
</svg>
