<svg preserveAspectRatio="none" width="100%" height="100%" overflow="visible" style="display: block;" viewBox="0 0 32 32" fill="none" xmlns="http://www.w3.org/2000/svg">
<g id="replay_10_24px">
<path id="Vector" d="M12 15.3333H11C10.7111 15.3333 10.4722 15.2389 10.2833 15.05C10.0944 14.8611 10 14.6222 10 14.3333C10 14.0444 10.0944 13.8056 10.2833 13.6167C10.4722 13.4278 10.7111 13.3333 11 13.3333H13C13.2889 13.3333 13.5278 13.4278 13.7167 13.6167C13.9056 13.8056 14 14.0444 14 14.3333V20.3333C14 20.6222 13.9056 20.8611 13.7167 21.05C13.5278 21.2389 13.2889 21.3333 13 21.3333C12.7111 21.3333 12.4722 21.2389 12.2833 21.05C12.0944 20.8611 12 20.6222 12 20.3333V15.3333ZM16.6667 21.3333C16.2889 21.3333 15.9722 21.2056 15.7167 20.95C15.4611 20.6944 15.3333 20.3778 15.3333 20V14.6667C15.3333 14.2889 15.4611 13.9722 15.7167 13.7167C15.9722 13.4611 16.2889 13.3333 16.6667 13.3333H19.3333C19.7111 13.3333 20.0278 13.4611 20.2833 13.7167C20.5389 13.9722 20.6667 14.2889 20.6667 14.6667V20C20.6667 20.3778 20.5389 20.6944 20.2833 20.95C20.0278 21.2056 19.7111 21.3333 19.3333 21.3333H16.6667ZM17.3333 19.3333H18.6667V15.3333H17.3333V19.3333ZM16 29.3333C14.3333 29.3333 12.7722 29.0167 11.3167 28.3833C9.86111 27.75 8.59444 26.8944 7.51667 25.8167C6.43889 24.7389 5.58333 23.4722 4.95 22.0167C4.31667 20.5611 4 19 4 17.3333C4 16.9556 4.12778 16.6389 4.38333 16.3833C4.63889 16.1278 4.95556 16 5.33333 16C5.71111 16 6.02778 16.1278 6.28333 16.3833C6.53889 16.6389 6.66667 16.9556 6.66667 17.3333C6.66667 19.9333 7.57222 22.1389 9.38333 23.95C11.1944 25.7611 13.4 26.6667 16 26.6667C18.6 26.6667 20.8056 25.7611 22.6167 23.95C24.4278 22.1389 25.3333 19.9333 25.3333 17.3333C25.3333 14.7333 24.4278 12.5278 22.6167 10.7167C20.8056 8.90555 18.6 8 16 8H15.8L16.9333 9.13333C17.2 9.4 17.3278 9.71111 17.3167 10.0667C17.3056 10.4222 17.1778 10.7333 16.9333 11C16.6667 11.2667 16.35 11.4056 15.9833 11.4167C15.6167 11.4278 15.3 11.3 15.0333 11.0333L11.6 7.6C11.3333 7.33333 11.2 7.02222 11.2 6.66667C11.2 6.31111 11.3333 6 11.6 5.73333L15.0333 2.3C15.3 2.03333 15.6167 1.90555 15.9833 1.91667C16.35 1.92778 16.6667 2.06667 16.9333 2.33333C17.1778 2.6 17.3056 2.91111 17.3167 3.26667C17.3278 3.62222 17.2 3.93333 16.9333 4.2L15.8 5.33333H16C17.6667 5.33333 19.2278 5.65 20.6833 6.28333C22.1389 6.91667 23.4056 7.77222 24.4833 8.85C25.5611 9.92778 26.4167 11.1944 27.05 12.65C27.6833 14.1056 28 15.6667 28 17.3333C28 19 27.6833 20.5611 27.05 22.0167C26.4167 23.4722 25.5611 24.7389 24.4833 25.8167C23.4056 26.8944 22.1389 27.75 20.6833 28.3833C19.2278 29.0167 17.6667 29.3333 16 29.3333Z" fill="var(--fill-0, black)"/>
</g>
</svg>
