<svg preserveAspectRatio="none" width="100%" height="100%" overflow="visible" style="display: block;" viewBox="0 0 28 28" fill="none" xmlns="http://www.w3.org/2000/svg">
<g id="timer_24px">
<path id="Vector" d="M11.6667 3.5C11.3361 3.5 11.059 3.38819 10.8354 3.16458C10.6118 2.94097 10.5 2.66389 10.5 2.33333C10.5 2.00278 10.6118 1.72569 10.8354 1.50208C11.059 1.27847 11.3361 1.16667 11.6667 1.16667H16.3333C16.6639 1.16667 16.941 1.27847 17.1646 1.50208C17.3882 1.72569 17.5 2.00278 17.5 2.33333C17.5 2.66389 17.3882 2.94097 17.1646 3.16458C16.941 3.38819 16.6639 3.5 16.3333 3.5H11.6667ZM14 16.3333C14.3306 16.3333 14.6076 16.2215 14.8312 15.9979C15.0549 15.7743 15.1667 15.4972 15.1667 15.1667V10.5C15.1667 10.1694 15.0549 9.89236 14.8312 9.66875C14.6076 9.44514 14.3306 9.33333 14 9.33333C13.6694 9.33333 13.3924 9.44514 13.1687 9.66875C12.9451 9.89236 12.8333 10.1694 12.8333 10.5V15.1667C12.8333 15.4972 12.9451 15.7743 13.1687 15.9979C13.3924 16.2215 13.6694 16.3333 14 16.3333ZM14 25.6667C12.5611 25.6667 11.2049 25.3896 9.93125 24.8354C8.65764 24.2812 7.54444 23.5278 6.59167 22.575C5.63889 21.6222 4.88542 20.509 4.33125 19.2354C3.77708 17.9618 3.5 16.6056 3.5 15.1667C3.5 13.7278 3.77708 12.3715 4.33125 11.0979C4.88542 9.82431 5.63889 8.71111 6.59167 7.75833C7.54444 6.80556 8.65764 6.05208 9.93125 5.49792C11.2049 4.94375 12.5611 4.66667 14 4.66667C15.2056 4.66667 16.3625 4.86111 17.4708 5.25C18.5792 5.63889 19.6194 6.20278 20.5917 6.94167L21.4083 6.125C21.6222 5.91111 21.8944 5.80417 22.225 5.80417C22.5556 5.80417 22.8278 5.91111 23.0417 6.125C23.2556 6.33889 23.3625 6.61111 23.3625 6.94167C23.3625 7.27222 23.2556 7.54444 23.0417 7.75833L22.225 8.575C22.9639 9.54722 23.5278 10.5875 23.9167 11.6958C24.3056 12.8042 24.5 13.9611 24.5 15.1667C24.5 16.6056 24.2229 17.9618 23.6687 19.2354C23.1146 20.509 22.3611 21.6222 21.4083 22.575C20.4556 23.5278 19.3424 24.2812 18.0687 24.8354C16.7951 25.3896 15.4389 25.6667 14 25.6667ZM14 23.3333C16.2556 23.3333 18.1806 22.5361 19.775 20.9417C21.3694 19.3472 22.1667 17.4222 22.1667 15.1667C22.1667 12.9111 21.3694 10.9861 19.775 9.39167C18.1806 7.79722 16.2556 7 14 7C11.7444 7 9.81944 7.79722 8.225 9.39167C6.63056 10.9861 5.83333 12.9111 5.83333 15.1667C5.83333 17.4222 6.63056 19.3472 8.225 20.9417C9.81944 22.5361 11.7444 23.3333 14 23.3333Z" fill="var(--fill-0, black)"/>
</g>
</svg>
